<svg xmlns="http://www.w3.org/2000/svg" viewBox="0 0 1000 1000" >
        <g color="green">
        <rect x="0" y="0" width="742" height="742" fill="white" stroke="gray"/><line x1="532" y1="581" x2="91" y2="467" stroke="gray" /><line x1="91" y1="467" x2="209" y2="41" stroke="gray" /><line x1="209" y1="41" x2="650" y2="156" stroke="gray" /><line x1="650" y1="156" x2="532" y2="581" stroke="gray" /><line x1="532" y1="700" x2="91" y2="585" stroke="gray" /><line x1="91" y1="585" x2="209" y2="160" stroke="gray" /><line x1="209" y1="160" x2="650" y2="274" stroke="gray" /><line x1="650" y1="274" x2="532" y2="700" stroke="gray" /><line x1="532" y1="581" x2="532" y2="700" stroke="gray" /><line x1="91" y1="467" x2="91" y2="585" stroke="gray" /><line x1="209" y1="41" x2="209" y2="160" stroke="gray" /><line x1="650" y1="156" x2="650" y2="274" stroke="gray" /><circle cx="319" cy="396" r="9" fill="#FF8A8A"/><line x1="371" y1="371" x2="319" y2="396" stroke="blue" /><circle cx="329" cy="438" r="8" fill="#FF9595"/><line x1="319" y1="396" x2="329" y2="438" stroke="blue" /><circle cx="278" cy="369" r="6" fill="#FFA6A6"/><line x1="329" y1="438" x2="278" y2="369" stroke="blue" /><circle cx="405" cy="237" r="6" fill="#FFB0B0"/><line x1="278" y1="369" x2="405" y2="237" stroke="blue" /><circle cx="476" cy="305" r="8" fill="#FF9595"/><line x1="405" y1="237" x2="476" y2="305" stroke="blue" /><circle cx="533" cy="240" r="8" fill="#FF9090"/><line x1="476" y1="305" x2="533" y2="240" stroke="blue" /><circle cx="306" cy="216" r="12" fill="#FF5D5D"/><line x1="533" y1="240" x2="306" y2="216" stroke="blue" /><circle cx="284" cy="560" r="9" fill="#FF8282"/><line x1="306" y1="216" x2="284" y2="560" stroke="blue" /><circle cx="406" cy="573" r="10" fill="#FF7575"/><line x1="284" y1="560" x2="406" y2="573" stroke="blue" /> </g>
        </svg>